<?xml version="1.0" encoding="utf-8"?>
<!-- Generator: Adobe Illustrator 25.4.1, SVG Export Plug-In . SVG Version: 6.00 Build 0)  -->
<svg version="1.1" id="Layer_1" xmlns="http://www.w3.org/2000/svg" xmlns:xlink="http://www.w3.org/1999/xlink" x="0px" y="0px"
	 viewBox="0 0 350.5 345.9" style="enable-background:new 0 0 350.5 345.9;" xml:space="preserve">
<style type="text/css">
	.st0{fill:#FFFFFF;}
</style>
<g>
	<path class="st0" d="M171.9,330.4c-87.6,0-158.8-71.2-158.8-158.8S84.3,12.9,171.9,12.9s158.8,71.2,158.8,158.8
		S259.4,330.4,171.9,330.4z M171.9,32.9c-76.5,0-138.8,62.3-138.8,138.8c0,76.5,62.3,138.8,138.8,138.8s138.8-62.3,138.8-138.8
		C310.7,95.1,248.4,32.9,171.9,32.9z"/>
</g>
<path class="st0" d="M229.8,141.4l-16.9-1.2c-16.1,0-26.5,5.1-31,15.2v104.1h-51.2V95h48l1.7,21.1C189,100.1,201,92,216.4,92
	c5.5,0,10.2,0.6,14.3,1.8L229.8,141.4z"/>
</svg>
