<?xml version="1.0" encoding="utf-8"?>
<!-- Generator: Adobe Illustrator 25.4.1, SVG Export Plug-In . SVG Version: 6.00 Build 0)  -->
<svg version="1.1" xmlns="http://www.w3.org/2000/svg" xmlns:xlink="http://www.w3.org/1999/xlink" x="0px" y="0px"
	 viewBox="0 0 433 238.5" style="enable-background:new 0 0 433 238.5;" xml:space="preserve">
<style type="text/css">
	.st0{fill:#FFFFFF;}
	.st1{fill:#141043;}
	.st2{fill:#337DC0;}
</style>
<g id="Layer_2">
	<rect x="0.8" y="1.4" class="st0" width="431.2" height="236"/>
</g>
<g id="Layer_1">
	<g>
		<g>
			<path class="st1" d="M79,159.7c0.2,0,0.3-0.1,0.3-0.2c0.1-0.1,0.1-0.3,0.2-0.6h0.3v5h-0.3c0-0.3-0.1-0.5-0.2-0.6
				c-0.1-0.1-0.2-0.1-0.3-0.1H64v-0.3c0.4,0,0.6-0.1,0.7-0.2c0.1-0.1,0.1-0.2,0.1-0.3V149c0-0.1,0-0.2-0.1-0.3
				c-0.1-0.1-0.3-0.1-0.7-0.2v-0.3h5.9v0.3c-0.4,0-0.6,0.1-0.7,0.2c-0.1,0.1-0.1,0.2-0.1,0.3v10.7H79z"/>
			<path class="st1" d="M120,157.7c0-0.2-0.1-0.3-0.2-0.5c-0.1-0.1-0.3-0.2-0.6-0.2h-5.3v2.7h9.2c0.2,0,0.3-0.1,0.3-0.2
				c0.1-0.1,0.1-0.3,0.2-0.7h0.3v4.9h-0.3c0-0.2-0.1-0.4-0.2-0.5c-0.1-0.1-0.2-0.1-0.3-0.1h-14.3v-0.3c0.4,0,0.6-0.1,0.7-0.2
				c0.1-0.1,0.1-0.2,0.1-0.3V149c0-0.1,0-0.2-0.1-0.3c-0.1-0.1-0.3-0.1-0.7-0.2v-0.3H123c0.2,0,0.3-0.1,0.3-0.2
				c0.1-0.1,0.1-0.3,0.2-0.6h0.3v5h-0.3c0-0.3-0.1-0.5-0.2-0.6c-0.1-0.1-0.2-0.2-0.3-0.2h-9.2v2.4h5.3c0.3,0,0.5-0.1,0.6-0.2
				c0.1-0.1,0.2-0.3,0.2-0.5h0.3v4.5H120z"/>
			<path class="st1" d="M156.1,162.9c0.2,0,0.3-0.1,0.4-0.1s0.2-0.2,0.2-0.4c0,0-0.1-0.2-0.2-0.6c-0.1-0.4-0.3-0.9-0.5-1.5
				c-0.2-0.6-0.4-1.3-0.7-2.1c-0.3-0.8-0.5-1.6-0.8-2.4c-0.3-0.8-0.6-1.6-0.8-2.4c-0.3-0.8-0.5-1.5-0.7-2.2
				c-0.2-0.6-0.4-1.2-0.5-1.6c-0.1-0.4-0.2-0.7-0.2-0.7c-0.1-0.2-0.2-0.3-0.3-0.3v-0.3h5.3v0.3c-0.2,0-0.3,0.1-0.4,0.1
				c-0.1,0-0.2,0.1-0.2,0.3c0,0.1,0.1,0.3,0.2,0.6c0.1,0.3,0.2,0.8,0.4,1.3c0.2,0.5,0.4,1.1,0.6,1.8c0.2,0.6,0.4,1.3,0.6,1.9
				c0.2,0.6,0.4,1.2,0.6,1.8c0.2,0.6,0.3,1.1,0.4,1.4h0.1c0.1-0.4,0.3-0.8,0.4-1.4c0.2-0.6,0.4-1.2,0.6-1.8c0.2-0.6,0.4-1.3,0.6-1.9
				c0.2-0.7,0.4-1.2,0.5-1.8c0.2-0.5,0.3-1,0.4-1.3c0.1-0.4,0.1-0.6,0.1-0.6c0-0.2-0.1-0.3-0.2-0.3c-0.1,0-0.3-0.1-0.4-0.1v-0.3h6.8
				v0.3c-0.1,0-0.2,0.1-0.3,0.1c-0.1,0-0.1,0.1-0.1,0.3c0,0,0,0.2,0.1,0.6c0.1,0.4,0.2,0.8,0.4,1.4c0.2,0.6,0.3,1.2,0.5,1.9
				c0.2,0.7,0.4,1.3,0.5,2c0.2,0.6,0.3,1.2,0.5,1.8c0.2,0.6,0.3,1,0.3,1.3h0.1c0.1-0.2,0.2-0.6,0.3-1.1c0.2-0.5,0.3-1.1,0.6-1.7
				c0.2-0.6,0.4-1.3,0.6-2c0.2-0.7,0.4-1.3,0.6-1.9c0.2-0.6,0.3-1.1,0.5-1.5s0.2-0.6,0.2-0.7c0-0.2-0.1-0.3-0.2-0.3
				c-0.1-0.1-0.3-0.1-0.4-0.1v-0.3h4.8v0.3c-0.2,0-0.3,0.1-0.3,0.2c-0.1,0.1-0.1,0.2-0.2,0.4c0,0.1-0.1,0.3-0.2,0.7
				c-0.1,0.4-0.3,0.9-0.5,1.5c-0.2,0.6-0.4,1.3-0.7,2.1c-0.3,0.8-0.5,1.6-0.8,2.4c-0.3,0.8-0.6,1.6-0.8,2.4
				c-0.3,0.8-0.5,1.5-0.7,2.1c-0.2,0.6-0.4,1.1-0.5,1.5c-0.1,0.4-0.2,0.6-0.2,0.6c0,0.2,0.1,0.3,0.2,0.3c0.1,0,0.3,0.1,0.4,0.1v0.3
				h-6v-0.3c0.4-0.1,0.6-0.2,0.6-0.4c0-0.2-0.1-0.7-0.3-1.4c-0.2-0.7-0.4-1.6-0.7-2.5c-0.3-1-0.6-2-0.9-3.1
				c-0.3-1.1-0.6-2.1-0.9-3.1h-0.1c-0.2,0.8-0.5,1.8-0.9,2.9c-0.3,1.1-0.7,2.2-1,3.2c-0.3,1-0.6,1.9-0.8,2.6
				c-0.2,0.7-0.3,1.2-0.3,1.3c0,0.3,0.2,0.4,0.6,0.4v0.3h-6.2V162.9z"/>
			<path class="st1" d="M206.3,162.9c0.4,0,0.6-0.1,0.7-0.2c0.1-0.1,0.1-0.2,0.1-0.3V149c0-0.1,0-0.2-0.1-0.3
				c-0.1-0.1-0.3-0.1-0.7-0.2v-0.3h5.9v0.3c-0.4,0-0.6,0.1-0.7,0.2c-0.1,0.1-0.1,0.2-0.1,0.3v13.4c0,0.1,0,0.2,0.1,0.3
				c0.1,0.1,0.3,0.1,0.7,0.2v0.3h-5.9V162.9z"/>
			<path class="st1" d="M244,157.4c0,0.1-0.1,0.3-0.1,0.6c0,0.2,0.2,0.4,0.5,0.6c0.4,0.2,0.8,0.5,1.4,0.7c0.6,0.2,1.2,0.4,1.9,0.5
				c0.7,0.1,1.5,0.2,2.2,0.2c1.4,0,2.5-0.2,3.2-0.5c0.7-0.3,1-0.8,1-1.5c0-0.3-0.3-0.6-0.9-0.7c-0.6-0.1-1.3-0.3-2.2-0.3
				c-0.9-0.1-1.8-0.2-2.8-0.3c-1-0.1-2-0.3-2.8-0.6c-0.9-0.3-1.6-0.7-2.2-1.2c-0.6-0.5-0.9-1.2-0.9-2.2c0-0.7,0.2-1.4,0.5-2
				c0.3-0.6,0.8-1.1,1.4-1.5c0.6-0.4,1.3-0.8,2.2-1c0.9-0.2,1.8-0.4,2.9-0.4c1,0,1.9,0.1,2.7,0.2c0.8,0.1,1.6,0.3,2.2,0.4
				c0.7,0.2,1.2,0.3,1.6,0.4c0.4,0.1,0.8,0.2,0.9,0.2c0.2,0,0.3,0,0.5-0.1c0.1-0.1,0.2-0.2,0.3-0.3l0.3,0.1l-2,4l-0.3-0.2v-0.3
				c0-0.2-0.2-0.3-0.6-0.5c-0.4-0.2-0.8-0.3-1.4-0.5c-0.6-0.1-1.2-0.3-1.9-0.4c-0.7-0.1-1.4-0.1-2.1-0.1c-1.2,0-2.1,0.1-2.6,0.4
				c-0.5,0.3-0.7,0.6-0.7,0.9c0,0.3,0.2,0.6,0.5,0.7c0.3,0.2,0.8,0.3,1.3,0.4c0.6,0.1,1.2,0.1,1.9,0.2c0.7,0,1.4,0.1,2.2,0.2
				c0.7,0.1,1.5,0.2,2.2,0.4c0.7,0.2,1.3,0.4,1.9,0.8c0.6,0.3,1,0.8,1.3,1.3c0.3,0.5,0.5,1.2,0.5,2.1c0,0.6-0.1,1.3-0.4,1.9
				c-0.3,0.6-0.7,1.2-1.3,1.6c-0.6,0.5-1.5,0.9-2.5,1.2c-1,0.3-2.3,0.4-3.9,0.4c-1.2,0-2.2-0.1-3.1-0.2c-0.9-0.1-1.6-0.3-2.2-0.4
				c-0.6-0.2-1.1-0.3-1.4-0.4c-0.4-0.1-0.6-0.2-0.8-0.2c-0.1,0-0.2,0-0.3,0.1c-0.1,0.1-0.2,0.2-0.3,0.3l-0.3-0.1l2.1-5.1L244,157.4z
				"/>
		</g>
		<g>
			<path class="st2" d="M70,62.1C69.5,62,69.2,62,68.8,62c-1.2,0-2,0.4-2.4,1.2v7.9h-3.2v-12h3l0.1,1.4c0.6-1.1,1.5-1.7,2.7-1.7
				c0.4,0,0.7,0,1,0.1L70,62.1z"/>
			<path class="st2" d="M76.6,71.3c-1.8,0-3.2-0.5-4.3-1.6c-1.1-1.1-1.7-2.5-1.7-4.3V65c0-1.2,0.2-2.3,0.7-3.2
				c0.5-0.9,1.1-1.7,2-2.2c0.9-0.5,1.8-0.8,2.9-0.8c1.6,0,2.9,0.5,3.9,1.6c0.9,1,1.4,2.5,1.4,4.4v1.3h-7.6c0.1,0.8,0.4,1.4,0.9,1.9
				c0.5,0.5,1.2,0.7,2,0.7c1.2,0,2.2-0.4,2.9-1.3l1.6,1.8c-0.5,0.7-1.1,1.2-2,1.6C78.5,71.1,77.6,71.3,76.6,71.3z M76.2,61.4
				c-0.6,0-1.2,0.2-1.5,0.6c-0.4,0.4-0.6,1-0.8,1.8h4.5v-0.3c0-0.7-0.2-1.3-0.6-1.7C77.4,61.6,76.9,61.4,76.2,61.4z"/>
			<path class="st2" d="M89.4,65.4h-6.2v-2.6h6.2V65.4z"/>
			<path class="st2" d="M97.2,71.3c-1.8,0-3.2-0.5-4.3-1.6c-1.1-1.1-1.7-2.5-1.7-4.3V65c0-1.2,0.2-2.3,0.7-3.2s1.1-1.7,2-2.2
				c0.9-0.5,1.8-0.8,2.9-0.8c1.6,0,2.9,0.5,3.9,1.6c0.9,1,1.4,2.5,1.4,4.4v1.3h-7.6c0.1,0.8,0.4,1.4,0.9,1.9c0.5,0.5,1.2,0.7,2,0.7
				c1.2,0,2.2-0.4,2.9-1.3l1.6,1.8c-0.5,0.7-1.1,1.2-2,1.6C99.1,71.1,98.2,71.3,97.2,71.3z M96.9,61.4c-0.6,0-1.2,0.2-1.5,0.6
				c-0.4,0.4-0.6,1-0.8,1.8H99v-0.3c0-0.7-0.2-1.3-0.6-1.7C98.1,61.6,97.5,61.4,96.9,61.4z"/>
			<path class="st2" d="M107.1,71.1h-3.2V54h3.2V71.1z"/>
			<path class="st2" d="M115.1,71.3c-1.8,0-3.2-0.5-4.3-1.6c-1.1-1.1-1.7-2.5-1.7-4.3V65c0-1.2,0.2-2.3,0.7-3.2
				c0.5-0.9,1.1-1.7,2-2.2c0.9-0.5,1.8-0.8,2.9-0.8c1.6,0,2.9,0.5,3.9,1.6c0.9,1,1.4,2.5,1.4,4.4v1.3h-7.6c0.1,0.8,0.4,1.4,0.9,1.9
				c0.5,0.5,1.2,0.7,2,0.7c1.2,0,2.2-0.4,2.9-1.3l1.6,1.8c-0.5,0.7-1.1,1.2-2,1.6C117,71.1,116.1,71.3,115.1,71.3z M114.7,61.4
				c-0.6,0-1.2,0.2-1.5,0.6c-0.4,0.4-0.6,1-0.8,1.8h4.5v-0.3c0-0.7-0.2-1.3-0.6-1.7C115.9,61.6,115.4,61.4,114.7,61.4z"/>
			<path class="st2" d="M126.6,68.7c0.6,0,1.1-0.2,1.4-0.5c0.4-0.3,0.6-0.8,0.6-1.3h3c0,0.8-0.2,1.6-0.7,2.2c-0.4,0.7-1,1.2-1.8,1.6
				c-0.8,0.4-1.6,0.6-2.5,0.6c-1.7,0-3.1-0.5-4.1-1.6c-1-1.1-1.5-2.6-1.5-4.5v-0.2c0-1.8,0.5-3.3,1.5-4.4c1-1.1,2.3-1.7,4-1.7
				c1.5,0,2.7,0.4,3.6,1.3c0.9,0.9,1.4,2,1.4,3.4h-3c0-0.6-0.2-1.1-0.6-1.5c-0.4-0.4-0.9-0.6-1.5-0.6c-0.7,0-1.3,0.3-1.7,0.8
				c-0.4,0.5-0.6,1.4-0.6,2.6v0.3c0,1.2,0.2,2.1,0.6,2.7C125.3,68.4,125.8,68.7,126.6,68.7z"/>
			<path class="st2" d="M137.1,56.1v3h2.1v2.4h-2.1v6c0,0.4,0.1,0.8,0.3,1c0.2,0.2,0.5,0.3,1,0.3c0.4,0,0.7,0,0.9-0.1V71
				c-0.6,0.2-1.3,0.3-1.9,0.3c-2.2,0-3.4-1.1-3.4-3.4v-6.5h-1.8v-2.4h1.8v-3H137.1z"/>
		</g>
		<g>
			<path class="st2" d="M264,212.5v-10.7h3.5c0.9,0,1.8,0.2,2.6,0.6c0.8,0.4,1.3,1,1.8,1.8c0.4,0.8,0.6,1.7,0.6,2.6v0.5
				c0,1-0.2,1.9-0.6,2.6c-0.4,0.8-1,1.4-1.8,1.8c-0.8,0.4-1.6,0.7-2.5,0.7H264z M266.6,203.8v6.7h0.9c0.7,0,1.3-0.3,1.7-0.8
				c0.4-0.5,0.6-1.3,0.6-2.4v-0.5c0-1-0.2-1.8-0.6-2.3c-0.4-0.5-1-0.8-1.7-0.8H266.6z"/>
			<path class="st2" d="M282.2,212.5h-2.6v-10.7h2.6V212.5z"/>
			<path class="st2" d="M295.3,209.7c0-0.4-0.1-0.7-0.4-0.9c-0.3-0.2-0.7-0.4-1.4-0.7c-0.7-0.2-1.2-0.4-1.7-0.7
				c-1.4-0.7-2.1-1.6-2.1-2.8c0-0.6,0.2-1.1,0.5-1.6c0.3-0.5,0.8-0.8,1.5-1.1s1.3-0.4,2.1-0.4c0.8,0,1.5,0.1,2.1,0.4
				c0.6,0.3,1.1,0.7,1.4,1.2c0.3,0.5,0.5,1.1,0.5,1.7h-2.6c0-0.4-0.1-0.8-0.4-1c-0.3-0.2-0.6-0.4-1.1-0.4c-0.5,0-0.8,0.1-1.1,0.3
				c-0.3,0.2-0.4,0.5-0.4,0.8c0,0.3,0.1,0.5,0.4,0.7c0.3,0.2,0.8,0.5,1.6,0.7c0.7,0.2,1.4,0.5,1.8,0.8c1.2,0.7,1.7,1.6,1.7,2.8
				c0,0.9-0.4,1.7-1.1,2.2c-0.7,0.5-1.7,0.8-2.9,0.8c-0.9,0-1.7-0.2-2.4-0.5c-0.7-0.3-1.2-0.7-1.6-1.3s-0.5-1.2-0.5-1.9h2.6
				c0,0.6,0.1,1,0.4,1.3c0.3,0.3,0.8,0.4,1.4,0.4c0.4,0,0.8-0.1,1-0.3C295.2,210.3,295.3,210,295.3,209.7z"/>
			<path class="st2" d="M313.4,203.8h-3.2v8.7h-2.6v-8.7h-3.2v-2h9V203.8z"/>
			<path class="st2" d="M324.2,208.7h-1.4v3.8h-2.6v-10.7h4.2c1.3,0,2.3,0.3,3,0.8c0.7,0.6,1.1,1.4,1.1,2.4c0,0.7-0.2,1.4-0.5,1.9
				c-0.3,0.5-0.8,0.9-1.4,1.2l2.2,4.3v0.1h-2.8L324.2,208.7z M322.8,206.7h1.6c0.5,0,0.9-0.1,1.1-0.4c0.2-0.3,0.4-0.6,0.4-1.1
				c0-0.5-0.1-0.8-0.4-1.1c-0.2-0.3-0.6-0.4-1.1-0.4h-1.6V206.7z"/>
			<path class="st2" d="M338.6,212.5H336v-10.7h2.6V212.5z"/>
			<path class="st2" d="M354.8,208.9c0,0.7-0.2,1.4-0.6,2s-0.9,1-1.6,1.3c-0.7,0.3-1.4,0.5-2.3,0.5c-1.4,0-2.5-0.5-3.3-1.4
				c-0.8-0.9-1.2-2.2-1.2-3.9v-0.5c0-1.1,0.2-2,0.6-2.8c0.4-0.8,0.9-1.4,1.6-1.8c0.7-0.4,1.5-0.6,2.4-0.6c1.3,0,2.4,0.3,3.1,1
				c0.8,0.7,1.2,1.6,1.4,2.8h-2.6c0-0.7-0.2-1.1-0.5-1.4c-0.3-0.3-0.8-0.4-1.4-0.4c-0.6,0-1.1,0.2-1.4,0.7s-0.5,1.3-0.5,2.3v0.8
				c0,1.1,0.1,2,0.4,2.5c0.3,0.5,0.8,0.7,1.5,0.7c0.6,0,1-0.1,1.4-0.4c0.3-0.3,0.5-0.7,0.5-1.3H354.8z"/>
			<path class="st2" d="M370,203.8h-3.2v8.7h-2.6v-8.7H361v-2h9V203.8z"/>
			<path class="st2" d="M389.3,208.3h1.1v1.9h-1.1v2.3h-2.5v-2.3h-4.2l-0.1-1.5l4.3-6.9v0h2.5V208.3z M384.8,208.3h1.9V205l-0.2,0.2
				L384.8,208.3z"/>
			<path class="st2" d="M403.2,201.6v2h-0.1c-0.9,0-1.7,0.2-2.3,0.7c-0.6,0.4-1,1.1-1.1,1.9c0.6-0.6,1.3-0.8,2.1-0.8
				c0.9,0,1.7,0.3,2.2,1c0.6,0.7,0.8,1.6,0.8,2.7c0,0.7-0.2,1.3-0.5,1.9c-0.3,0.6-0.8,1-1.4,1.3c-0.6,0.3-1.2,0.5-1.9,0.5
				c-0.8,0-1.4-0.2-2-0.5c-0.6-0.3-1.1-0.8-1.4-1.5c-0.3-0.6-0.5-1.4-0.5-2.2v-1c0-1.1,0.2-2.1,0.7-3c0.5-0.9,1.2-1.6,2-2.1
				c0.9-0.5,1.9-0.8,2.9-0.8H403.2z M400.9,207.2c-0.3,0-0.6,0.1-0.8,0.2c-0.2,0.2-0.4,0.3-0.5,0.6v0.7c0,1.4,0.5,2,1.4,2
				c0.4,0,0.7-0.2,0.9-0.5c0.3-0.3,0.4-0.8,0.4-1.3c0-0.5-0.1-1-0.4-1.3C401.7,207.4,401.4,207.2,400.9,207.2z"/>
		</g>
		<g>
			<path class="st2" d="M114.7,212.6v-11.2h3.6c1,0,1.9,0.2,2.7,0.7s1.4,1.1,1.8,1.9s0.7,1.7,0.7,2.7v0.5c0,1-0.2,1.9-0.6,2.8
				s-1,1.4-1.8,1.9c-0.8,0.5-1.7,0.7-2.6,0.7H114.7z M117.4,203.5v7h0.9c0.8,0,1.4-0.3,1.8-0.8c0.4-0.6,0.6-1.4,0.6-2.5v-0.5
				c0-1.1-0.2-1.9-0.6-2.4c-0.4-0.5-1-0.8-1.8-0.8H117.4z"/>
			<path class="st2" d="M137.8,207.9h-4.2v2.7h5v2.1h-7.7v-11.2h7.7v2.1h-5v2.4h4.2V207.9z"/>
			<path class="st2" d="M149.3,201.5l2.5,7.8l2.5-7.8h3.5v11.2h-2.7V210l0.3-5.3l-2.7,8h-1.8l-2.7-8l0.3,5.3v2.6h-2.7v-11.2H149.3z"
				/>
			<path class="st2" d="M175.1,207.3c0,1.1-0.2,2.1-0.6,2.9c-0.4,0.8-1,1.5-1.7,1.9c-0.7,0.5-1.6,0.7-2.5,0.7c-1,0-1.8-0.2-2.5-0.7
				c-0.7-0.4-1.3-1.1-1.7-1.9c-0.4-0.8-0.6-1.7-0.6-2.8v-0.6c0-1.1,0.2-2.1,0.6-2.9c0.4-0.8,1-1.5,1.7-1.9c0.7-0.5,1.6-0.7,2.6-0.7
				c0.9,0,1.8,0.2,2.5,0.7c0.7,0.4,1.3,1.1,1.7,1.9c0.4,0.8,0.6,1.8,0.6,2.9V207.3z M172.4,206.8c0-1.1-0.2-2-0.6-2.5
				c-0.4-0.6-0.9-0.9-1.6-0.9c-1.4,0-2.1,1-2.1,3l0,0.8c0,1.1,0.2,1.9,0.5,2.5c0.4,0.6,0.9,0.9,1.6,0.9c0.7,0,1.2-0.3,1.6-0.9
				c0.4-0.6,0.6-1.4,0.6-2.5V206.8z"/>
			<path class="st2" d="M191.6,208.9c0,0.8-0.2,1.5-0.6,2.1c-0.4,0.6-0.9,1.1-1.6,1.4c-0.7,0.3-1.5,0.5-2.4,0.5
				c-1.5,0-2.6-0.5-3.5-1.4c-0.8-1-1.3-2.3-1.3-4.1v-0.6c0-1.1,0.2-2.1,0.6-2.9c0.4-0.8,0.9-1.5,1.6-1.9c0.7-0.4,1.5-0.7,2.5-0.7
				c1.4,0,2.4,0.4,3.3,1.1c0.8,0.7,1.3,1.7,1.4,3H189c0-0.7-0.2-1.2-0.5-1.5c-0.3-0.3-0.8-0.4-1.5-0.4c-0.7,0-1.2,0.3-1.5,0.8
				c-0.3,0.5-0.5,1.3-0.5,2.4v0.8c0,1.2,0.1,2,0.4,2.6c0.3,0.5,0.8,0.8,1.5,0.8c0.6,0,1.1-0.1,1.4-0.4c0.3-0.3,0.5-0.8,0.5-1.4
				H191.6z"/>
			<path class="st2" d="M203.2,208.7h-1.5v4H199v-11.2h4.4c1.3,0,2.4,0.3,3.1,0.9c0.7,0.6,1.1,1.4,1.1,2.5c0,0.8-0.2,1.4-0.5,1.9
				c-0.3,0.5-0.8,0.9-1.5,1.2l2.3,4.5v0.1h-2.9L203.2,208.7z M201.7,206.6h1.7c0.5,0,0.9-0.1,1.2-0.4c0.3-0.3,0.4-0.6,0.4-1.1
				c0-0.5-0.1-0.9-0.4-1.1c-0.3-0.3-0.6-0.4-1.2-0.4h-1.7V206.6z"/>
			<path class="st2" d="M221.7,210.6H218l-0.6,2.1h-2.9l4.1-11.2h2.5l4.1,11.2h-2.9L221.7,210.6z M218.6,208.5h2.4l-1.2-3.9
				L218.6,208.5z"/>
			<path class="st2" d="M240,203.5h-3.4v9.1h-2.7v-9.1h-3.3v-2.1h9.3V203.5z"/>
		</g>
		<path class="st1" d="M98.2,94.5l-6-0.4c-5.7,0-9.3,1.8-11,5.4v36.8H63.2V78.1h17l0.6,7.5c3-5.7,7.3-8.5,12.7-8.5
			c1.9,0,3.6,0.2,5,0.6L98.2,94.5z"/>
		<path class="st1" d="M96.2,106.6c0-5.8,1.1-11,3.4-15.5c2.3-4.5,5.5-8,9.7-10.4c4.2-2.4,9.2-3.7,14.9-3.7c8.7,0,15.6,2.7,20.6,8.1
			c5,5.4,7.5,12.7,7.5,22v0.6c0,9.1-2.5,16.2-7.5,21.6c-5,5.3-11.8,8-20.4,8c-8.3,0-14.9-2.5-19.9-7.4c-5-5-7.7-11.7-8.1-20.2
			L96.2,106.6z M114.3,107.8c0,5.4,0.8,9.3,2.5,11.8c1.7,2.5,4.2,3.8,7.5,3.8c6.4,0,9.7-5,9.9-14.9v-1.8c0-10.4-3.3-15.6-10-15.6
			c-6.1,0-9.3,4.5-9.8,13.5L114.3,107.8z"/>
		<path class="st1" d="M337.6,78.4l0.6,6.8c4-5.3,9.5-7.9,16.6-7.9c6.1,0,10.6,1.8,13.6,5.4c3,3.6,4.5,9.1,4.6,16.3v37.4h-18.2V99.9
			c0-2.9-0.6-5.1-1.8-6.5c-1.2-1.4-3.3-2.1-6.4-2.1c-3.5,0-6.2,1.4-7.9,4.2v41h-18.1V78.4H337.6z"/>
		<polygon class="st1" points="240,26.2 245.7,42.2 389.8,42.2 389.8,180.1 286,180.1 320.6,78.4 301.2,78.4 291.5,111.1 
			282.3,78.4 263,78.4 283.2,137.1 269.6,178.1 264.4,195.1 280.5,195.1 405.8,195.1 405.8,26.2 		"/>
		<path class="st1" d="M203.9,84.8c-3.9-5.2-9.5-7.8-16.8-7.8c-5.3,0-9.7,1.9-13.1,5.7V53.7H156v82.5h16.2l0.8-6
			c3.6,4.7,8.4,7,14.3,7c7.2,0,12.7-2.6,16.7-7.7c3.9-5.1,5.9-12.4,5.9-22v-0.9C209.8,97.3,207.9,90,203.9,84.8z M190.8,117.1
			c-1.1,4.1-3.8,6.2-8.1,6.2c-4.2,0-7.1-1.5-8.6-4.6V95.7c1.6-3.1,4.4-4.7,8.5-4.7c3.1,0,5.4,1.2,6.8,3.6c1.5,2.4,2.2,6.4,2.2,11.9
			C191.7,111.5,191.4,115.1,190.8,117.1z"/>
		<g>
			<path class="st1" d="M261.5,84.8c-3.9-5.2-9.5-7.8-16.8-7.8c-5.3,0-9.7,1.9-13.1,5.7V71.9l-16.3-45.7H27.2v168.9h216.2l5.2-15
				H42.2l1-137.9h170.3v94h16.2l0.8-6c3.6,4.7,8.4,7,14.3,7c7.2,0,12.7-2.6,16.7-7.7c3.9-5.1,5.9-12.4,5.9-22v-0.9
				C267.4,97.3,265.4,90,261.5,84.8z M248.6,117.1c-1.1,4.1-3.8,6.2-8.1,6.2c-4.2,0-7.1-1.5-8.6-4.6V95.7c1.6-3.1,4.4-4.7,8.5-4.7
				c3.1,0,5.4,1.2,6.8,3.6c1.5,2.4,2.2,6.4,2.2,11.9C249.4,111.5,249.1,115.1,248.6,117.1z"/>
		</g>
	</g>
</g>
</svg>
