<?xml version="1.0" encoding="utf-8"?>
<!-- Generator: Adobe Illustrator 25.4.1, SVG Export Plug-In . SVG Version: 6.00 Build 0)  -->
<svg version="1.1" xmlns="http://www.w3.org/2000/svg" xmlns:xlink="http://www.w3.org/1999/xlink" x="0px" y="0px"
	 viewBox="0 0 512 512" style="enable-background:new 0 0 512 512;" xml:space="preserve">
<style type="text/css">
	.st0{display:none;}
	.st1{display:inline;fill:#F70612;}
	.st2{display:inline;}
	.st3{fill:#FFFFFF;}
</style>
<g id="Layer_3" class="st0">
	<circle class="st1" cx="257.2" cy="255.2" r="248.2"/>
</g>
<g id="icon" class="st0">
	<path class="st2" d="M405.3,211.5c2.3-1.8,5.7-0.1,5.7,2.8v119.8c0,15.5-12.6,28.1-28.1,28.1H139.1c-15.5,0-28.1-12.6-28.1-28.1
		V214.4c0-2.9,3.3-4.6,5.7-2.8c13.1,10.2,30.5,23.1,90.3,66.6c12.4,9,33.2,28,54,27.9c20.9,0.2,42.2-19.2,54.1-27.9
		C374.8,234.8,392.2,221.7,405.3,211.5z M261,287.2c13.6,0.2,33.2-17.1,43-24.3c77.8-56.4,83.7-61.3,101.6-75.4
		c3.4-2.6,5.4-6.7,5.4-11.1v-11.1c0-15.5-12.6-28.1-28.1-28.1H139.1c-15.5,0-28.1,12.6-28.1,28.1v11.1c0,4.3,2,8.4,5.4,11.1
		c17.9,14,23.8,19,101.6,75.4C227.8,270.1,247.4,287.5,261,287.2L261,287.2z"/>
</g>
<g id="Layer_4">
	<g>
		<path class="st3" d="M257.6,7C120.5,7,9.4,118.1,9.4,255.2s111.1,248.2,248.2,248.2s248.2-111.1,248.2-248.2S394.7,7,257.6,7z
			 M407.6,334.1c0,15.5-12.6,28.1-28.1,28.1H135.7c-15.5,0-28.1-12.6-28.1-28.1V214.4c0-2.9,3.3-4.6,5.7-2.8
			c13.1,10.2,30.5,23.1,90.3,66.6c12.4,9,33.2,28,54,27.9c20.9,0.2,42.2-19.2,54.1-27.9c59.8-43.4,77.1-56.4,90.2-66.6
			c2.3-1.8,5.7-0.1,5.7,2.8V334.1z M407.6,176.5c0,4.3-2,8.4-5.4,11.1c-17.9,14.1-23.8,19-101.6,75.4c-9.8,7.1-29.4,24.5-43,24.3
			c-13.6,0.2-33.2-17.1-43-24.3c-77.8-56.4-83.7-61.4-101.6-75.4c-3.4-2.7-5.4-6.7-5.4-11.1v-11.1c0-15.5,12.6-28.1,28.1-28.1h243.8
			c15.5,0,28.1,12.6,28.1,28.1V176.5z"/>
	</g>
</g>
</svg>
