<?xml version="1.0" encoding="utf-8"?>
<!-- Generator: Adobe Illustrator 25.4.1, SVG Export Plug-In . SVG Version: 6.00 Build 0)  -->
<svg version="1.1" xmlns="http://www.w3.org/2000/svg" xmlns:xlink="http://www.w3.org/1999/xlink" x="0px" y="0px"
	 viewBox="0 0 512 512" style="enable-background:new 0 0 512 512;" xml:space="preserve">
<style type="text/css">
	.st0{display:none;}
	.st1{display:inline;}
	.st2{display:inline;fill:#43BAEB;}
	.st3{fill:#FFFFFF;}
</style>
<g id="Layer_1" focusable="false" class="st0">
	<path class="st1" d="M504,256C504,119,393,8,256,8S8,119,8,256c0,123.8,90.7,226.4,209.2,245V327.7h-63V256h63v-54.6
		c0-62.2,37-96.5,93.7-96.5c27.1,0,55.5,4.8,55.5,4.8v61h-31.3c-30.8,0-40.4,19.1-40.4,38.7V256h68.8l-11,71.7h-57.8V501
		C413.3,482.4,504,379.8,504,256z"/>
</g>
<g id="Layer_2" class="st0">
	<circle class="st2" cx="256" cy="256" r="247.8"/>
	<path class="st1" d="M394.6,198.3c0.2,3,0.2,6,0.2,8.9c0,90.8-69.1,195.3-195.3,195.3c-38.9,0-75-11.3-105.4-30.8
		c5.5,0.6,10.8,0.8,16.6,0.8c32.1,0,61.6-10.8,85.2-29.3c-30.2-0.6-55.5-20.4-64.2-47.6c4.3,0.6,8.5,1.1,13,1.1
		c6.2,0,12.3-0.9,18.1-2.3c-31.5-6.4-55.1-34-55.1-67.4v-0.8c9.1,5.1,19.8,8.3,31,8.7c-18.5-12.3-30.6-33.4-30.6-57.2
		c0-12.8,3.4-24.4,9.4-34.6c33.8,41.7,84.6,68.9,141.6,71.8c-1.1-5.1-1.7-10.4-1.7-15.7c0-37.8,30.6-68.7,68.7-68.7
		c19.8,0,37.6,8.3,50.2,21.7c15.5-3,30.4-8.7,43.6-16.6c-5.1,15.9-15.9,29.3-30.2,37.8c13.8-1.5,27.2-5.3,39.5-10.6
		C419.6,176.4,408,188.5,394.6,198.3L394.6,198.3z"/>
</g>
<g id="Layer_3">
	<g>
		<path class="st3" d="M256,8.2C119.2,8.2,8.2,119.2,8.2,256S119.2,503.8,256,503.8S503.8,392.8,503.8,256S392.8,8.2,256,8.2z
			 M394.6,198.3c0.2,3,0.2,6,0.2,8.9c0,90.8-69.1,195.3-195.3,195.3c-38.9,0-75-11.3-105.4-30.8c5.5,0.6,10.8,0.8,16.6,0.8
			c32.1,0,61.6-10.8,85.2-29.3c-30.2-0.6-55.5-20.4-64.2-47.6c4.3,0.6,8.5,1.1,13,1.1c6.2,0,12.3-0.9,18.1-2.3
			c-31.5-6.4-55.1-34-55.1-67.4v-0.8c9.1,5.1,19.8,8.3,31,8.7c-18.5-12.3-30.6-33.4-30.6-57.2c0-12.8,3.4-24.4,9.4-34.6
			c33.8,41.7,84.6,68.9,141.6,71.8c-1.1-5.1-1.7-10.4-1.7-15.7c0-37.8,30.6-68.7,68.7-68.7c19.8,0,37.6,8.3,50.2,21.7
			c15.5-3,30.4-8.7,43.6-16.6c-5.1,15.9-15.9,29.3-30.2,37.8c13.8-1.5,27.2-5.3,39.5-10.6C419.6,176.4,408,188.5,394.6,198.3z"/>
	</g>
</g>
</svg>
