<?xml version="1.0" encoding="utf-8"?>
<!-- Generator: Adobe Illustrator 25.0.1, SVG Export Plug-In . SVG Version: 6.00 Build 0)  -->
<svg version="1.1" id="Layer_1" xmlns="http://www.w3.org/2000/svg" xmlns:xlink="http://www.w3.org/1999/xlink" x="0px" y="0px"
	 viewBox="0 0 433.02 238.5" style="enable-background:new 0 0 433.02 238.5;" xml:space="preserve">
<style type="text/css">
	.st0{fill:#FFFFFF;}
</style>
<g>
	<g>
		<path class="st0" d="M78.95,159.73c0.15,0,0.27-0.05,0.34-0.16c0.08-0.11,0.13-0.32,0.17-0.65h0.34v4.97h-0.34
			c-0.04-0.31-0.1-0.49-0.17-0.56c-0.08-0.07-0.19-0.1-0.34-0.1H63.97v-0.34c0.36-0.04,0.59-0.1,0.67-0.19
			c0.09-0.09,0.13-0.2,0.13-0.33v-13.38c0-0.13-0.04-0.24-0.13-0.33c-0.09-0.09-0.31-0.15-0.67-0.19v-0.35h5.91v0.35
			c-0.36,0.04-0.59,0.1-0.67,0.19c-0.09,0.09-0.13,0.2-0.13,0.33v10.74H78.95z"/>
		<path class="st0" d="M119.97,157.72c-0.04-0.19-0.12-0.35-0.24-0.47c-0.12-0.12-0.33-0.19-0.62-0.19h-5.34v2.67h9.21
			c0.15,0,0.27-0.05,0.34-0.16c0.08-0.11,0.13-0.34,0.17-0.7h0.34v4.91h-0.34c-0.04-0.25-0.1-0.4-0.17-0.46
			c-0.08-0.06-0.19-0.09-0.34-0.09h-14.32v-0.34c0.36-0.04,0.59-0.1,0.67-0.19c0.09-0.09,0.13-0.2,0.13-0.33v-13.38
			c0-0.13-0.04-0.24-0.13-0.33c-0.09-0.09-0.31-0.15-0.67-0.19v-0.35h14.32c0.15,0,0.27-0.05,0.34-0.16
			c0.08-0.11,0.13-0.32,0.17-0.65h0.34v4.99h-0.34c-0.04-0.32-0.1-0.54-0.17-0.65c-0.08-0.1-0.19-0.16-0.34-0.16h-9.21v2.38h5.34
			c0.29,0,0.49-0.06,0.62-0.19c0.12-0.12,0.21-0.28,0.24-0.47h0.34v4.48H119.97z"/>
		<path class="st0" d="M156.05,162.89c0.15-0.04,0.29-0.08,0.4-0.13s0.17-0.17,0.17-0.36c0-0.04-0.06-0.25-0.19-0.63
			c-0.12-0.38-0.29-0.88-0.5-1.51c-0.21-0.62-0.44-1.33-0.7-2.13c-0.26-0.79-0.53-1.6-0.8-2.42c-0.28-0.82-0.55-1.64-0.82-2.44
			c-0.27-0.8-0.51-1.53-0.72-2.17c-0.21-0.64-0.38-1.17-0.52-1.59c-0.13-0.42-0.21-0.66-0.23-0.72c-0.06-0.21-0.15-0.31-0.29-0.31
			v-0.35h5.25v0.35c-0.17,0.04-0.32,0.08-0.43,0.13c-0.11,0.05-0.17,0.15-0.17,0.3c0,0.06,0.05,0.26,0.16,0.6
			c0.11,0.34,0.24,0.78,0.42,1.32c0.17,0.54,0.36,1.12,0.57,1.76c0.21,0.64,0.42,1.28,0.63,1.92c0.21,0.64,0.41,1.25,0.59,1.82
			c0.18,0.57,0.33,1.05,0.45,1.44h0.06c0.11-0.36,0.26-0.83,0.43-1.39c0.17-0.56,0.36-1.17,0.56-1.81c0.2-0.64,0.4-1.29,0.6-1.94
			c0.2-0.65,0.38-1.24,0.55-1.78c0.16-0.53,0.29-0.98,0.39-1.33c0.1-0.35,0.14-0.56,0.14-0.62c0-0.15-0.07-0.25-0.22-0.3
			c-0.14-0.05-0.27-0.09-0.39-0.13v-0.35h6.83v0.35c-0.13,0.04-0.25,0.08-0.34,0.13c-0.1,0.05-0.14,0.15-0.14,0.3
			c0,0.02,0.05,0.21,0.14,0.57c0.1,0.36,0.22,0.82,0.37,1.38c0.15,0.56,0.33,1.17,0.52,1.85c0.19,0.68,0.37,1.34,0.54,1.98
			c0.17,0.64,0.33,1.24,0.49,1.79c0.15,0.56,0.27,0.99,0.34,1.29h0.06c0.06-0.23,0.17-0.6,0.33-1.11c0.16-0.51,0.35-1.08,0.56-1.71
			c0.21-0.63,0.43-1.29,0.65-1.97c0.22-0.68,0.43-1.31,0.62-1.88c0.19-0.57,0.35-1.06,0.47-1.46s0.19-0.63,0.19-0.69
			c0-0.17-0.06-0.29-0.19-0.34c-0.12-0.06-0.26-0.11-0.42-0.14v-0.35h4.82v0.35c-0.15,0.02-0.26,0.08-0.33,0.17
			c-0.07,0.1-0.12,0.22-0.16,0.37c-0.02,0.06-0.1,0.29-0.23,0.7c-0.13,0.41-0.31,0.93-0.52,1.55c-0.21,0.62-0.45,1.33-0.72,2.13
			c-0.27,0.79-0.55,1.6-0.83,2.41c-0.29,0.81-0.56,1.61-0.82,2.4c-0.26,0.78-0.49,1.49-0.7,2.11c-0.21,0.62-0.38,1.13-0.5,1.52
			c-0.12,0.39-0.19,0.61-0.19,0.65c0,0.17,0.06,0.28,0.19,0.32c0.12,0.04,0.25,0.07,0.39,0.09v0.34h-5.97v-0.34
			c0.38-0.06,0.57-0.19,0.57-0.4c0-0.23-0.1-0.7-0.29-1.42c-0.19-0.72-0.43-1.55-0.7-2.51c-0.28-0.96-0.57-1.98-0.89-3.06
			c-0.32-1.08-0.61-2.1-0.88-3.06h-0.06c-0.23,0.84-0.52,1.81-0.86,2.91c-0.34,1.1-0.68,2.16-1,3.17c-0.33,1.01-0.6,1.89-0.83,2.64
			c-0.23,0.75-0.34,1.19-0.34,1.32c0,0.27,0.21,0.4,0.63,0.4v0.34h-6.2V162.89z"/>
		<path class="st0" d="M206.31,162.89c0.36-0.04,0.59-0.1,0.67-0.19c0.09-0.09,0.13-0.2,0.13-0.33v-13.38
			c0-0.13-0.04-0.24-0.13-0.33c-0.09-0.09-0.31-0.15-0.67-0.19v-0.35h5.91v0.35c-0.36,0.04-0.59,0.1-0.67,0.19
			c-0.09,0.09-0.13,0.2-0.13,0.33v13.38c0,0.13,0.04,0.24,0.13,0.33c0.09,0.09,0.31,0.15,0.67,0.19v0.34h-5.91V162.89z"/>
		<path class="st0" d="M243.97,157.4c-0.04,0.11-0.06,0.31-0.06,0.6c0,0.19,0.18,0.41,0.53,0.65c0.35,0.24,0.81,0.46,1.38,0.67
			c0.56,0.21,1.21,0.39,1.94,0.53c0.73,0.14,1.46,0.22,2.21,0.22c1.44,0,2.49-0.17,3.16-0.5c0.67-0.34,1-0.82,1-1.45
			c0-0.34-0.29-0.59-0.88-0.73c-0.58-0.14-1.32-0.26-2.2-0.34c-0.88-0.09-1.83-0.18-2.84-0.29c-1.01-0.11-1.96-0.3-2.84-0.57
			c-0.88-0.28-1.61-0.68-2.2-1.21c-0.58-0.53-0.88-1.25-0.88-2.17c0-0.73,0.17-1.39,0.5-1.98c0.33-0.59,0.8-1.1,1.41-1.52
			c0.6-0.42,1.33-0.75,2.2-0.99c0.86-0.24,1.82-0.36,2.87-0.36c0.98,0,1.88,0.06,2.73,0.19c0.84,0.13,1.59,0.26,2.24,0.42
			c0.65,0.15,1.2,0.29,1.64,0.42c0.44,0.13,0.76,0.19,0.95,0.19c0.19,0,0.34-0.04,0.46-0.13c0.11-0.09,0.22-0.19,0.31-0.3l0.32,0.12
			l-1.98,3.99l-0.34-0.17v-0.32c0-0.17-0.19-0.35-0.56-0.53c-0.37-0.18-0.85-0.34-1.42-0.49c-0.57-0.14-1.22-0.26-1.92-0.36
			c-0.71-0.1-1.4-0.14-2.07-0.14c-1.24,0-2.12,0.14-2.61,0.43c-0.5,0.29-0.75,0.59-0.75,0.92c0,0.33,0.17,0.57,0.52,0.73
			c0.35,0.16,0.79,0.28,1.35,0.36c0.56,0.08,1.19,0.14,1.9,0.19c0.71,0.05,1.44,0.12,2.18,0.21c0.75,0.1,1.47,0.23,2.18,0.4
			c0.71,0.17,1.34,0.43,1.89,0.76c0.55,0.33,1,0.78,1.35,1.32c0.35,0.55,0.52,1.23,0.52,2.05c0,0.63-0.13,1.25-0.39,1.87
			c-0.26,0.61-0.7,1.16-1.32,1.65c-0.62,0.49-1.45,0.88-2.5,1.16c-1.04,0.29-2.34,0.43-3.89,0.43c-1.21,0-2.24-0.06-3.11-0.17
			c-0.87-0.11-1.61-0.25-2.23-0.42c-0.61-0.16-1.1-0.31-1.45-0.44c-0.35-0.13-0.62-0.2-0.79-0.2c-0.12,0-0.22,0.04-0.3,0.12
			c-0.09,0.08-0.18,0.16-0.27,0.26l-0.34-0.09l2.12-5.11L243.97,157.4z"/>
	</g>
	<g>
		<path class="st0" d="M69.98,62.07c-0.44-0.06-0.82-0.09-1.15-0.09c-1.21,0-2.01,0.41-2.38,1.23v7.85h-3.21v-12h3.03l0.09,1.43
			c0.64-1.1,1.53-1.65,2.67-1.65c0.35,0,0.69,0.05,1,0.14L69.98,62.07z"/>
		<path class="st0" d="M76.6,71.29c-1.76,0-3.19-0.54-4.3-1.62c-1.11-1.08-1.66-2.52-1.66-4.31v-0.31c0-1.2,0.23-2.28,0.7-3.23
			c0.47-0.95,1.13-1.68,1.98-2.2c0.85-0.51,1.83-0.77,2.92-0.77c1.64,0,2.93,0.52,3.88,1.55c0.94,1.04,1.41,2.5,1.41,4.4v1.31H73.9
			c0.1,0.78,0.42,1.41,0.94,1.89c0.52,0.47,1.18,0.71,1.98,0.71c1.23,0,2.2-0.45,2.89-1.34l1.58,1.76
			c-0.48,0.68-1.13,1.21-1.95,1.59C78.51,71.1,77.6,71.29,76.6,71.29z M76.24,61.43c-0.64,0-1.15,0.21-1.55,0.65
			c-0.4,0.43-0.65,1.05-0.76,1.85h4.46v-0.26c-0.02-0.71-0.21-1.26-0.58-1.65C77.44,61.62,76.92,61.43,76.24,61.43z"/>
		<path class="st0" d="M89.36,65.44h-6.24v-2.58h6.24V65.44z"/>
		<path class="st0" d="M97.23,71.29c-1.76,0-3.19-0.54-4.3-1.62c-1.11-1.08-1.66-2.52-1.66-4.31v-0.31c0-1.2,0.23-2.28,0.7-3.23
			s1.13-1.68,1.98-2.2c0.85-0.51,1.83-0.77,2.92-0.77c1.64,0,2.93,0.52,3.88,1.55c0.94,1.04,1.41,2.5,1.41,4.4v1.31h-7.64
			c0.1,0.78,0.42,1.41,0.94,1.89c0.52,0.47,1.18,0.71,1.98,0.71c1.23,0,2.2-0.45,2.89-1.34l1.57,1.76
			c-0.48,0.68-1.13,1.21-1.95,1.59C99.14,71.1,98.23,71.29,97.23,71.29z M96.87,61.43c-0.64,0-1.15,0.21-1.55,0.65
			c-0.4,0.43-0.65,1.05-0.76,1.85h4.46v-0.26c-0.02-0.71-0.21-1.26-0.58-1.65C98.07,61.62,97.55,61.43,96.87,61.43z"/>
		<path class="st0" d="M107.14,71.07h-3.22V54.03h3.22V71.07z"/>
		<path class="st0" d="M115.08,71.29c-1.76,0-3.19-0.54-4.3-1.62c-1.11-1.08-1.66-2.52-1.66-4.31v-0.31c0-1.2,0.23-2.28,0.7-3.23
			c0.47-0.95,1.13-1.68,1.98-2.2c0.85-0.51,1.83-0.77,2.92-0.77c1.64,0,2.93,0.52,3.88,1.55c0.94,1.04,1.41,2.5,1.41,4.4v1.31h-7.64
			c0.1,0.78,0.42,1.41,0.94,1.89c0.52,0.47,1.18,0.71,1.98,0.71c1.23,0,2.2-0.45,2.89-1.34l1.58,1.76
			c-0.48,0.68-1.13,1.21-1.95,1.59C116.99,71.1,116.08,71.29,115.08,71.29z M114.71,61.43c-0.64,0-1.15,0.21-1.55,0.65
			c-0.4,0.43-0.65,1.05-0.76,1.85h4.46v-0.26c-0.02-0.71-0.21-1.26-0.58-1.65C115.92,61.62,115.39,61.43,114.71,61.43z"/>
		<path class="st0" d="M126.6,68.7c0.59,0,1.07-0.16,1.44-0.49c0.37-0.33,0.56-0.76,0.58-1.3h3.01c-0.01,0.81-0.23,1.56-0.67,2.23
			c-0.44,0.68-1.03,1.2-1.79,1.58c-0.76,0.37-1.6,0.56-2.51,0.56c-1.72,0-3.07-0.54-4.06-1.64c-0.99-1.09-1.49-2.6-1.49-4.52v-0.21
			c0-1.85,0.49-3.32,1.48-4.43c0.98-1.1,2.33-1.65,4.05-1.65c1.5,0,2.7,0.43,3.61,1.28c0.91,0.85,1.37,1.99,1.38,3.41h-3.01
			c-0.02-0.62-0.21-1.13-0.58-1.52c-0.37-0.39-0.86-0.59-1.46-0.59c-0.75,0-1.31,0.27-1.69,0.82c-0.38,0.54-0.57,1.43-0.57,2.65
			v0.33c0,1.24,0.19,2.13,0.57,2.67C125.26,68.43,125.83,68.7,126.6,68.7z"/>
		<path class="st0" d="M137.06,56.12v2.95h2.05v2.35h-2.05v5.99c0,0.44,0.08,0.76,0.26,0.95c0.17,0.19,0.49,0.29,0.98,0.29
			c0.35,0,0.67-0.03,0.94-0.08V71c-0.63,0.19-1.28,0.29-1.94,0.29c-2.25,0-3.39-1.14-3.44-3.41v-6.47h-1.75v-2.35h1.75v-2.95H137.06
			z"/>
	</g>
	<g>
		<path class="st0" d="M263.96,212.53v-10.74h3.46c0.95,0,1.8,0.22,2.56,0.65c0.76,0.43,1.35,1.04,1.77,1.82
			c0.43,0.78,0.64,1.66,0.65,2.64v0.49c0,0.98-0.21,1.86-0.62,2.64c-0.42,0.78-1,1.39-1.76,1.83c-0.75,0.44-1.6,0.66-2.53,0.67
			H263.96z M266.55,203.79v6.75h0.9c0.74,0,1.31-0.26,1.71-0.79c0.4-0.53,0.6-1.31,0.6-2.36v-0.47c0-1.04-0.2-1.82-0.6-2.35
			c-0.4-0.53-0.98-0.79-1.74-0.79H266.55z"/>
		<path class="st0" d="M282.23,212.53h-2.58v-10.74h2.58V212.53z"/>
		<path class="st0" d="M295.31,209.68c0-0.38-0.13-0.67-0.4-0.89c-0.27-0.21-0.74-0.43-1.41-0.66c-0.67-0.23-1.23-0.44-1.65-0.66
			c-1.39-0.68-2.09-1.62-2.09-2.82c0-0.59,0.17-1.12,0.52-1.57c0.35-0.46,0.84-0.81,1.47-1.06s1.35-0.38,2.14-0.38
			c0.77,0,1.46,0.14,2.08,0.41c0.61,0.28,1.09,0.67,1.43,1.18c0.34,0.51,0.51,1.09,0.51,1.74h-2.58c0-0.44-0.13-0.78-0.4-1.02
			c-0.27-0.24-0.63-0.36-1.09-0.36c-0.46,0-0.83,0.1-1.1,0.31c-0.27,0.2-0.4,0.46-0.4,0.78c0,0.28,0.15,0.53,0.44,0.75
			c0.3,0.22,0.81,0.46,1.56,0.69c0.74,0.24,1.35,0.49,1.83,0.77c1.16,0.67,1.74,1.59,1.74,2.77c0,0.94-0.35,1.68-1.06,2.21
			c-0.71,0.54-1.68,0.8-2.91,0.8c-0.87,0-1.66-0.16-2.36-0.47c-0.71-0.31-1.24-0.74-1.59-1.28s-0.53-1.17-0.53-1.88h2.6
			c0,0.58,0.15,1,0.45,1.27c0.3,0.27,0.78,0.41,1.45,0.41c0.43,0,0.77-0.09,1.01-0.28C295.19,210.27,295.31,210.01,295.31,209.68z"
			/>
		<path class="st0" d="M313.4,203.79h-3.22v8.74h-2.59v-8.74h-3.16v-2h8.98V203.79z"/>
		<path class="st0" d="M324.23,208.73h-1.4v3.8h-2.59v-10.74h4.23c1.27,0,2.27,0.28,2.99,0.85c0.72,0.57,1.08,1.36,1.08,2.39
			c0,0.75-0.15,1.37-0.45,1.86c-0.3,0.49-0.78,0.89-1.42,1.19l2.24,4.34v0.11h-2.77L324.23,208.73z M322.83,206.74h1.64
			c0.49,0,0.86-0.13,1.11-0.39c0.25-0.26,0.37-0.62,0.37-1.08c0-0.46-0.12-0.83-0.38-1.09c-0.25-0.26-0.62-0.4-1.11-0.4h-1.64
			V206.74z"/>
		<path class="st0" d="M338.59,212.53h-2.58v-10.74h2.58V212.53z"/>
		<path class="st0" d="M354.82,208.9c-0.03,0.75-0.24,1.41-0.6,1.98s-0.89,1.02-1.55,1.33c-0.67,0.31-1.43,0.47-2.28,0.47
			c-1.41,0-2.52-0.46-3.33-1.38c-0.81-0.92-1.22-2.22-1.22-3.9v-0.53c0-1.05,0.18-1.97,0.55-2.76c0.37-0.79,0.89-1.4,1.58-1.83
			c0.69-0.43,1.49-0.64,2.39-0.64c1.3,0,2.35,0.34,3.14,1.03c0.79,0.69,1.24,1.63,1.35,2.84h-2.58c-0.02-0.65-0.18-1.12-0.49-1.41
			c-0.31-0.28-0.78-0.43-1.42-0.43c-0.64,0-1.12,0.24-1.42,0.72s-0.46,1.25-0.47,2.31v0.76c0,1.15,0.14,1.96,0.43,2.46
			c0.29,0.49,0.78,0.74,1.49,0.74c0.59,0,1.05-0.14,1.37-0.42c0.31-0.28,0.48-0.73,0.5-1.33H354.82z"/>
		<path class="st0" d="M370.01,203.79h-3.22v8.74h-2.59v-8.74h-3.16v-2h8.98V203.79z"/>
		<path class="st0" d="M389.25,208.34h1.09v1.92h-1.09v2.28h-2.49v-2.28h-4.15l-0.15-1.52l4.3-6.92v-0.02h2.49V208.34z
			 M384.84,208.34h1.93v-3.31l-0.16,0.25L384.84,208.34z"/>
		<path class="st0" d="M403.19,201.64v1.95h-0.11c-0.93,0-1.69,0.22-2.29,0.67c-0.6,0.44-0.97,1.06-1.1,1.86
			c0.56-0.55,1.27-0.83,2.12-0.83c0.93,0,1.67,0.34,2.22,1.02c0.55,0.68,0.83,1.57,0.83,2.67c0,0.68-0.16,1.31-0.48,1.88
			c-0.32,0.57-0.77,1.02-1.35,1.34c-0.58,0.32-1.22,0.48-1.92,0.48c-0.76,0-1.44-0.17-2.04-0.52c-0.6-0.35-1.07-0.84-1.4-1.49
			c-0.33-0.64-0.51-1.39-0.52-2.23v-1c0-1.11,0.24-2.1,0.71-2.98c0.47-0.88,1.15-1.58,2.03-2.08c0.88-0.5,1.86-0.75,2.93-0.75
			H403.19z M400.94,207.19c-0.33,0-0.61,0.08-0.83,0.23c-0.22,0.15-0.39,0.34-0.49,0.56v0.74c0,1.36,0.47,2.04,1.41,2.04
			c0.38,0,0.69-0.17,0.95-0.51c0.25-0.34,0.38-0.76,0.38-1.28c0-0.53-0.13-0.96-0.39-1.29
			C401.71,207.36,401.37,207.19,400.94,207.19z"/>
	</g>
	<g>
		<path class="st0" d="M114.67,212.64v-11.17h3.6c0.99,0,1.87,0.22,2.66,0.67s1.4,1.08,1.85,1.9s0.67,1.73,0.67,2.74v0.51
			c0,1.02-0.22,1.94-0.65,2.75s-1.04,1.45-1.83,1.9c-0.79,0.46-1.66,0.69-2.63,0.69H114.67z M117.36,203.55v7.02h0.94
			c0.77,0,1.36-0.28,1.78-0.83c0.41-0.55,0.62-1.37,0.62-2.45v-0.48c0-1.08-0.21-1.89-0.62-2.44c-0.42-0.55-1.02-0.82-1.81-0.82
			H117.36z"/>
		<path class="st0" d="M137.85,207.9h-4.24v2.67h5v2.07h-7.7v-11.17h7.71v2.08h-5.02v2.36h4.24V207.9z"/>
		<path class="st0" d="M149.34,201.47l2.49,7.77l2.49-7.77h3.55v11.17h-2.7v-2.61l0.26-5.34l-2.7,7.95h-1.78l-2.71-7.96l0.26,5.35
			v2.61h-2.69v-11.17H149.34z"/>
		<path class="st0" d="M175.13,207.28c0,1.09-0.2,2.05-0.61,2.89c-0.4,0.84-0.98,1.48-1.72,1.94c-0.75,0.45-1.59,0.68-2.54,0.68
			c-0.95,0-1.8-0.22-2.53-0.66c-0.74-0.44-1.31-1.06-1.72-1.88c-0.41-0.81-0.63-1.75-0.65-2.8v-0.63c0-1.1,0.2-2.06,0.6-2.9
			c0.4-0.84,0.98-1.48,1.73-1.94c0.75-0.45,1.6-0.68,2.56-0.68c0.95,0,1.79,0.23,2.53,0.68c0.74,0.45,1.32,1.09,1.73,1.92
			c0.41,0.83,0.62,1.79,0.63,2.86V207.28z M172.39,206.82c0-1.11-0.19-1.95-0.56-2.53c-0.37-0.58-0.9-0.86-1.59-0.86
			c-1.35,0-2.07,1.01-2.14,3.04l-0.01,0.82c0,1.09,0.18,1.94,0.54,2.53c0.36,0.59,0.9,0.88,1.62,0.88c0.68,0,1.2-0.29,1.57-0.87
			c0.37-0.58,0.56-1.41,0.56-2.49V206.82z"/>
		<path class="st0" d="M191.64,208.86c-0.04,0.78-0.25,1.46-0.63,2.06c-0.38,0.6-0.92,1.06-1.62,1.38
			c-0.69,0.33-1.49,0.49-2.38,0.49c-1.47,0-2.62-0.48-3.47-1.44c-0.84-0.96-1.27-2.31-1.27-4.05v-0.55c0-1.09,0.19-2.05,0.57-2.87
			c0.38-0.82,0.93-1.46,1.65-1.9c0.72-0.45,1.55-0.67,2.49-0.67c1.36,0,2.45,0.36,3.27,1.07c0.82,0.71,1.29,1.7,1.41,2.95h-2.69
			c-0.02-0.68-0.19-1.17-0.51-1.47c-0.32-0.3-0.81-0.45-1.47-0.45c-0.67,0-1.16,0.25-1.47,0.75c-0.31,0.5-0.48,1.3-0.49,2.4v0.79
			c0,1.19,0.15,2.04,0.45,2.56c0.3,0.51,0.81,0.77,1.55,0.77c0.62,0,1.09-0.15,1.42-0.44c0.33-0.29,0.5-0.75,0.52-1.39H191.64z"/>
		<path class="st0" d="M203.16,208.69h-1.46v3.95H199v-11.17h4.4c1.32,0,2.36,0.29,3.11,0.88c0.75,0.59,1.12,1.42,1.12,2.49
			c0,0.78-0.16,1.42-0.47,1.93c-0.31,0.51-0.81,0.93-1.48,1.24l2.33,4.51v0.12h-2.89L203.16,208.69z M201.7,206.62h1.7
			c0.51,0,0.9-0.13,1.15-0.4c0.26-0.27,0.39-0.64,0.39-1.13c0-0.48-0.13-0.86-0.39-1.13c-0.26-0.28-0.64-0.41-1.15-0.41h-1.7V206.62
			z"/>
		<path class="st0" d="M221.69,210.55H218l-0.64,2.09h-2.88l4.1-11.17h2.53l4.13,11.17h-2.89L221.69,210.55z M218.64,208.47h2.4
			l-1.2-3.88L218.64,208.47z"/>
		<path class="st0" d="M239.99,203.55h-3.35v9.09h-2.69v-9.09h-3.29v-2.08h9.34V203.55z"/>
	</g>
	<path class="st0" d="M98.22,94.48l-5.96-0.43c-5.69,0-9.35,1.79-10.96,5.37v36.79H63.2V78.1h16.97l0.59,7.47
		c3.04-5.69,7.29-8.54,12.73-8.54c1.93,0,3.62,0.21,5.05,0.64L98.22,94.48z"/>
	<path class="st0" d="M96.24,106.62c0-5.8,1.13-10.97,3.38-15.5c2.26-4.53,5.5-8.01,9.72-10.45c4.22-2.43,9.18-3.65,14.88-3.65
		c8.7,0,15.56,2.69,20.57,8.08c5.01,5.39,7.52,12.72,7.52,22v0.64c0,9.06-2.52,16.25-7.55,21.56c-5.03,5.32-11.84,7.98-20.44,7.98
		c-8.27,0-14.91-2.48-19.93-7.44c-5.01-4.96-7.72-11.68-8.11-20.17L96.24,106.62z M114.34,107.75c0,5.37,0.84,9.31,2.52,11.82
		c1.68,2.51,4.17,3.76,7.47,3.76c6.45,0,9.74-4.96,9.88-14.88v-1.83c0-10.42-3.33-15.63-9.99-15.63c-6.05,0-9.33,4.49-9.83,13.48
		L114.34,107.75z"/>
	<path class="st0" d="M337.58,78.43l0.59,6.82c4.01-5.26,9.54-7.9,16.6-7.9c6.05,0,10.57,1.81,13.56,5.42
		c2.99,3.62,4.54,9.06,4.65,16.33v37.44h-18.15V99.86c0-2.94-0.59-5.09-1.77-6.47c-1.18-1.38-3.33-2.07-6.45-2.07
		c-3.54,0-6.18,1.4-7.9,4.19v41.04h-18.1V78.43H337.58z"/>
	<polygon class="st0" points="239.99,26.17 245.68,42.17 389.81,42.17 389.81,180.05 286.02,180.05 320.58,78.36 301.19,78.36 
		291.53,111.12 282.34,78.36 263.01,78.36 283.2,137.06 269.65,178.05 264.44,195.05 280.47,195.05 405.81,195.05 405.81,26.17 	"/>
	<path class="st0" d="M203.94,84.82c-3.94-5.19-9.53-7.79-16.76-7.79c-5.34,0-9.69,1.92-13.05,5.75V53.72h-18.1v82.5h16.22
		l0.75-5.96c3.62,4.69,8.38,7.04,14.29,7.04c7.16,0,12.71-2.56,16.65-7.68c3.94-5.12,5.91-12.44,5.91-21.97v-0.91
		C209.84,97.31,207.87,90.01,203.94,84.82z M190.83,117.11c-1.15,4.15-3.85,6.22-8.11,6.22c-4.19,0-7.05-1.54-8.59-4.61V95.66
		c1.58-3.11,4.4-4.67,8.49-4.67c3.08,0,5.36,1.19,6.85,3.57c1.49,2.38,2.23,6.35,2.23,11.93
		C191.69,111.53,191.4,115.07,190.83,117.11z"/>
	<g>
		<path class="st0" d="M261.46,84.82c-3.94-5.19-9.53-7.79-16.76-7.79c-5.34,0-9.69,1.92-13.05,5.75V71.89L215.4,26.17H27.21v168.88
			h216.23l5.21-15H42.21l1-137.88h170.35v94.04h16.22l0.75-5.96c3.62,4.69,8.38,7.04,14.29,7.04c7.16,0,12.71-2.56,16.65-7.68
			c3.94-5.12,5.91-12.44,5.91-21.97v-0.91C267.37,97.31,265.4,90.01,261.46,84.82z M248.57,117.11c-1.15,4.15-3.85,6.22-8.11,6.22
			c-4.19,0-7.05-1.54-8.59-4.61V95.66c1.58-3.11,4.4-4.67,8.49-4.67c3.08,0,5.36,1.19,6.85,3.57c1.49,2.38,2.23,6.35,2.23,11.93
			C249.43,111.53,249.15,115.07,248.57,117.11z"/>
	</g>
</g>
</svg>
